<mxfile host="app.diagrams.net" agent="Mozilla/5.0 (Windows NT 10.0; Win64; x64) AppleWebKit/537.36 (KHTML, like Gecko) Chrome/130.0.0.0 Safari/537.36" version="25.0.3">
  <diagram name="Page-1" id="e7e014a7-5840-1c2e-5031-d8a46d1fe8dd">
    <mxGraphModel dx="1693" dy="915" grid="1" gridSize="10" guides="1" tooltips="1" connect="1" arrows="1" fold="1" page="1" pageScale="1" pageWidth="1169" pageHeight="826" background="none" math="0" shadow="0">
      <root>
        <mxCell id="0" />
        <mxCell id="1" parent="0" />
        <mxCell id="2" value="User" style="swimlane;whiteSpace=wrap" parent="1" vertex="1">
          <mxGeometry x="50" y="50" width="260" height="750" as="geometry" />
        </mxCell>
        <mxCell id="5" value="" style="ellipse;shape=startState;fillColor=#000000;strokeColor=#FFFFFF;" parent="2" vertex="1">
          <mxGeometry x="100" y="40" width="30" height="30" as="geometry" />
        </mxCell>
        <mxCell id="6" value="" style="edgeStyle=elbowEdgeStyle;elbow=horizontal;verticalAlign=bottom;endArrow=open;endSize=8;strokeColor=#000000;endFill=1;rounded=0" parent="2" source="5" target="7" edge="1">
          <mxGeometry x="100" y="40" as="geometry">
            <mxPoint x="115" y="110" as="targetPoint" />
          </mxGeometry>
        </mxCell>
        <mxCell id="7" value="Visit Website" style="perimeterSpacing=2;rounded=1;" parent="2" vertex="1">
          <mxGeometry x="60" y="110" width="110" height="50" as="geometry" />
        </mxCell>
        <mxCell id="9" value="" style="endArrow=open;strokeColor=#000000;endFill=1;rounded=0;entryX=0.5;entryY=0;entryDx=0;entryDy=0;" parent="2" target="EQRVj0fhtWuDoBMEf7y_-44" edge="1">
          <mxGeometry relative="1" as="geometry">
            <mxPoint x="115" y="162" as="sourcePoint" />
            <mxPoint x="115" y="190" as="targetPoint" />
          </mxGeometry>
        </mxCell>
        <mxCell id="EQRVj0fhtWuDoBMEf7y_-54" value="" style="edgeStyle=orthogonalEdgeStyle;rounded=0;orthogonalLoop=1;jettySize=auto;html=1;" edge="1" parent="2" source="EQRVj0fhtWuDoBMEf7y_-42" target="EQRVj0fhtWuDoBMEf7y_-53">
          <mxGeometry relative="1" as="geometry" />
        </mxCell>
        <mxCell id="EQRVj0fhtWuDoBMEf7y_-42" value="Enter personal information" style="rounded=1;whiteSpace=wrap;html=1;" vertex="1" parent="2">
          <mxGeometry x="30" y="380" width="120" height="60" as="geometry" />
        </mxCell>
        <mxCell id="EQRVj0fhtWuDoBMEf7y_-47" style="edgeStyle=orthogonalEdgeStyle;rounded=0;orthogonalLoop=1;jettySize=auto;html=1;entryX=0.5;entryY=0;entryDx=0;entryDy=0;" edge="1" parent="2" source="EQRVj0fhtWuDoBMEf7y_-44" target="EQRVj0fhtWuDoBMEf7y_-42">
          <mxGeometry relative="1" as="geometry" />
        </mxCell>
        <mxCell id="EQRVj0fhtWuDoBMEf7y_-44" value="has profile?" style="rhombus;whiteSpace=wrap;html=1;" vertex="1" parent="2">
          <mxGeometry x="57.5" y="270" width="115" height="70" as="geometry" />
        </mxCell>
        <mxCell id="EQRVj0fhtWuDoBMEf7y_-55" style="edgeStyle=orthogonalEdgeStyle;rounded=0;orthogonalLoop=1;jettySize=auto;html=1;" edge="1" parent="2" source="EQRVj0fhtWuDoBMEf7y_-53">
          <mxGeometry relative="1" as="geometry">
            <mxPoint x="240" y="80" as="targetPoint" />
            <Array as="points">
              <mxPoint x="240" y="510" />
              <mxPoint x="240" y="80" />
            </Array>
          </mxGeometry>
        </mxCell>
        <mxCell id="EQRVj0fhtWuDoBMEf7y_-53" value="Created Profile" style="rounded=1;whiteSpace=wrap;html=1;" vertex="1" parent="2">
          <mxGeometry x="30" y="480" width="120" height="60" as="geometry" />
        </mxCell>
        <mxCell id="EQRVj0fhtWuDoBMEf7y_-60" value="NO" style="text;html=1;align=center;verticalAlign=middle;resizable=0;points=[];autosize=1;strokeColor=none;fillColor=none;" vertex="1" parent="2">
          <mxGeometry x="120" y="340" width="40" height="30" as="geometry" />
        </mxCell>
        <mxCell id="EQRVj0fhtWuDoBMEf7y_-61" value="YES" style="text;html=1;align=center;verticalAlign=middle;resizable=0;points=[];autosize=1;strokeColor=none;fillColor=none;" vertex="1" parent="2">
          <mxGeometry x="180" y="270" width="50" height="30" as="geometry" />
        </mxCell>
        <mxCell id="3" value="Jobseeker" style="swimlane;whiteSpace=wrap;startSize=23;" parent="1" vertex="1">
          <mxGeometry x="310" y="50" width="440" height="750" as="geometry" />
        </mxCell>
        <mxCell id="EQRVj0fhtWuDoBMEf7y_-57" value="" style="edgeStyle=orthogonalEdgeStyle;rounded=0;orthogonalLoop=1;jettySize=auto;html=1;" edge="1" parent="3" source="EQRVj0fhtWuDoBMEf7y_-49" target="EQRVj0fhtWuDoBMEf7y_-56">
          <mxGeometry relative="1" as="geometry" />
        </mxCell>
        <mxCell id="EQRVj0fhtWuDoBMEf7y_-49" value="Jobseeker login" style="rounded=1;whiteSpace=wrap;html=1;" vertex="1" parent="3">
          <mxGeometry x="20" y="50" width="100" height="50" as="geometry" />
        </mxCell>
        <mxCell id="EQRVj0fhtWuDoBMEf7y_-59" value="" style="edgeStyle=orthogonalEdgeStyle;rounded=0;orthogonalLoop=1;jettySize=auto;html=1;" edge="1" parent="3" source="EQRVj0fhtWuDoBMEf7y_-56" target="EQRVj0fhtWuDoBMEf7y_-58">
          <mxGeometry relative="1" as="geometry" />
        </mxCell>
        <mxCell id="EQRVj0fhtWuDoBMEf7y_-66" value="" style="edgeStyle=orthogonalEdgeStyle;rounded=0;orthogonalLoop=1;jettySize=auto;html=1;" edge="1" parent="3" source="EQRVj0fhtWuDoBMEf7y_-56" target="EQRVj0fhtWuDoBMEf7y_-65">
          <mxGeometry relative="1" as="geometry" />
        </mxCell>
        <mxCell id="EQRVj0fhtWuDoBMEf7y_-56" value="Login successful?" style="rhombus;whiteSpace=wrap;html=1;rounded=1;" vertex="1" parent="3">
          <mxGeometry x="5" y="130" width="130" height="75" as="geometry" />
        </mxCell>
        <mxCell id="EQRVj0fhtWuDoBMEf7y_-63" value="" style="edgeStyle=orthogonalEdgeStyle;rounded=0;orthogonalLoop=1;jettySize=auto;html=1;entryX=1;entryY=0.5;entryDx=0;entryDy=0;exitX=0.5;exitY=1;exitDx=0;exitDy=0;" edge="1" parent="3" source="EQRVj0fhtWuDoBMEf7y_-58" target="EQRVj0fhtWuDoBMEf7y_-49">
          <mxGeometry relative="1" as="geometry">
            <mxPoint x="160" y="90" as="targetPoint" />
            <Array as="points">
              <mxPoint x="70" y="330" />
              <mxPoint x="170" y="330" />
              <mxPoint x="170" y="75" />
            </Array>
          </mxGeometry>
        </mxCell>
        <mxCell id="EQRVj0fhtWuDoBMEf7y_-58" value="Reset password" style="whiteSpace=wrap;html=1;rounded=1;" vertex="1" parent="3">
          <mxGeometry x="10" y="250" width="120" height="60" as="geometry" />
        </mxCell>
        <mxCell id="EQRVj0fhtWuDoBMEf7y_-72" value="" style="edgeStyle=orthogonalEdgeStyle;rounded=0;orthogonalLoop=1;jettySize=auto;html=1;" edge="1" parent="3" source="EQRVj0fhtWuDoBMEf7y_-65" target="EQRVj0fhtWuDoBMEf7y_-71">
          <mxGeometry relative="1" as="geometry" />
        </mxCell>
        <mxCell id="EQRVj0fhtWuDoBMEf7y_-65" value="Jobseeker Main menu" style="whiteSpace=wrap;html=1;rounded=1;" vertex="1" parent="3">
          <mxGeometry x="220" y="137.5" width="120" height="60" as="geometry" />
        </mxCell>
        <mxCell id="EQRVj0fhtWuDoBMEf7y_-74" value="" style="edgeStyle=orthogonalEdgeStyle;rounded=0;orthogonalLoop=1;jettySize=auto;html=1;" edge="1" parent="3" source="EQRVj0fhtWuDoBMEf7y_-71" target="EQRVj0fhtWuDoBMEf7y_-73">
          <mxGeometry relative="1" as="geometry">
            <Array as="points">
              <mxPoint x="280" y="370" />
              <mxPoint x="110" y="370" />
            </Array>
          </mxGeometry>
        </mxCell>
        <mxCell id="EQRVj0fhtWuDoBMEf7y_-71" value="Apply for Job" style="whiteSpace=wrap;html=1;rounded=1;" vertex="1" parent="3">
          <mxGeometry x="220" y="230" width="120" height="60" as="geometry" />
        </mxCell>
        <mxCell id="EQRVj0fhtWuDoBMEf7y_-76" value="" style="edgeStyle=orthogonalEdgeStyle;rounded=0;orthogonalLoop=1;jettySize=auto;html=1;" edge="1" parent="3" source="EQRVj0fhtWuDoBMEf7y_-73" target="EQRVj0fhtWuDoBMEf7y_-75">
          <mxGeometry relative="1" as="geometry" />
        </mxCell>
        <mxCell id="EQRVj0fhtWuDoBMEf7y_-82" value="" style="edgeStyle=orthogonalEdgeStyle;rounded=0;orthogonalLoop=1;jettySize=auto;html=1;exitX=0.961;exitY=0.506;exitDx=0;exitDy=0;exitPerimeter=0;" edge="1" parent="3" source="EQRVj0fhtWuDoBMEf7y_-73" target="EQRVj0fhtWuDoBMEf7y_-81">
          <mxGeometry relative="1" as="geometry" />
        </mxCell>
        <mxCell id="EQRVj0fhtWuDoBMEf7y_-73" value="Has JobFinder resume?" style="rhombus;whiteSpace=wrap;html=1;rounded=1;" vertex="1" parent="3">
          <mxGeometry x="52.5" y="430" width="115" height="70" as="geometry" />
        </mxCell>
        <mxCell id="EQRVj0fhtWuDoBMEf7y_-78" value="" style="edgeStyle=orthogonalEdgeStyle;rounded=0;orthogonalLoop=1;jettySize=auto;html=1;" edge="1" parent="3" source="EQRVj0fhtWuDoBMEf7y_-75" target="EQRVj0fhtWuDoBMEf7y_-77">
          <mxGeometry relative="1" as="geometry" />
        </mxCell>
        <mxCell id="EQRVj0fhtWuDoBMEf7y_-75" value="Take registered user information" style="whiteSpace=wrap;html=1;rounded=1;" vertex="1" parent="3">
          <mxGeometry x="50" y="520" width="120" height="60" as="geometry" />
        </mxCell>
        <mxCell id="EQRVj0fhtWuDoBMEf7y_-85" value="" style="edgeStyle=orthogonalEdgeStyle;rounded=0;orthogonalLoop=1;jettySize=auto;html=1;" edge="1" parent="3" source="EQRVj0fhtWuDoBMEf7y_-77" target="EQRVj0fhtWuDoBMEf7y_-84">
          <mxGeometry relative="1" as="geometry" />
        </mxCell>
        <mxCell id="EQRVj0fhtWuDoBMEf7y_-77" value="Generate default resume with information OR upload resume" style="whiteSpace=wrap;html=1;rounded=1;" vertex="1" parent="3">
          <mxGeometry x="50" y="600" width="120" height="60" as="geometry" />
        </mxCell>
        <mxCell id="EQRVj0fhtWuDoBMEf7y_-79" value="NO" style="text;html=1;align=center;verticalAlign=middle;resizable=0;points=[];autosize=1;strokeColor=none;fillColor=none;" vertex="1" parent="3">
          <mxGeometry x="120" y="490" width="40" height="30" as="geometry" />
        </mxCell>
        <mxCell id="EQRVj0fhtWuDoBMEf7y_-81" value="Submit job application&amp;nbsp;" style="whiteSpace=wrap;html=1;rounded=1;" vertex="1" parent="3">
          <mxGeometry x="227.5" y="437.5" width="105" height="55" as="geometry" />
        </mxCell>
        <mxCell id="EQRVj0fhtWuDoBMEf7y_-86" style="edgeStyle=orthogonalEdgeStyle;rounded=0;orthogonalLoop=1;jettySize=auto;html=1;" edge="1" parent="3" source="EQRVj0fhtWuDoBMEf7y_-84">
          <mxGeometry relative="1" as="geometry">
            <mxPoint x="210" y="470" as="targetPoint" />
          </mxGeometry>
        </mxCell>
        <mxCell id="EQRVj0fhtWuDoBMEf7y_-84" value="Complete resume" style="whiteSpace=wrap;html=1;rounded=1;" vertex="1" parent="3">
          <mxGeometry x="52.5" y="680" width="120" height="60" as="geometry" />
        </mxCell>
        <mxCell id="4" value="Employer" style="swimlane;whiteSpace=wrap" parent="1" vertex="1">
          <mxGeometry x="750" y="50" width="350" height="750" as="geometry" />
        </mxCell>
        <mxCell id="EQRVj0fhtWuDoBMEf7y_-91" value="" style="edgeStyle=orthogonalEdgeStyle;rounded=0;orthogonalLoop=1;jettySize=auto;html=1;" edge="1" parent="4" source="EQRVj0fhtWuDoBMEf7y_-88" target="EQRVj0fhtWuDoBMEf7y_-90">
          <mxGeometry relative="1" as="geometry" />
        </mxCell>
        <mxCell id="EQRVj0fhtWuDoBMEf7y_-88" value="Receive Job Application" style="whiteSpace=wrap;html=1;rounded=1;" vertex="1" parent="4">
          <mxGeometry x="53" y="660" width="105" height="55" as="geometry" />
        </mxCell>
        <mxCell id="EQRVj0fhtWuDoBMEf7y_-93" value="" style="edgeStyle=orthogonalEdgeStyle;rounded=0;orthogonalLoop=1;jettySize=auto;html=1;" edge="1" parent="4" source="EQRVj0fhtWuDoBMEf7y_-90" target="EQRVj0fhtWuDoBMEf7y_-92">
          <mxGeometry relative="1" as="geometry" />
        </mxCell>
        <mxCell id="EQRVj0fhtWuDoBMEf7y_-90" value="Review Resume" style="whiteSpace=wrap;html=1;rounded=1;" vertex="1" parent="4">
          <mxGeometry x="52.5" y="570" width="105" height="55" as="geometry" />
        </mxCell>
        <mxCell id="EQRVj0fhtWuDoBMEf7y_-95" value="" style="edgeStyle=orthogonalEdgeStyle;rounded=0;orthogonalLoop=1;jettySize=auto;html=1;" edge="1" parent="4" source="EQRVj0fhtWuDoBMEf7y_-92" target="EQRVj0fhtWuDoBMEf7y_-94">
          <mxGeometry relative="1" as="geometry" />
        </mxCell>
        <mxCell id="EQRVj0fhtWuDoBMEf7y_-101" value="" style="edgeStyle=orthogonalEdgeStyle;rounded=0;orthogonalLoop=1;jettySize=auto;html=1;" edge="1" parent="4" source="EQRVj0fhtWuDoBMEf7y_-92" target="EQRVj0fhtWuDoBMEf7y_-100">
          <mxGeometry relative="1" as="geometry" />
        </mxCell>
        <mxCell id="EQRVj0fhtWuDoBMEf7y_-92" value="Meets requirements?" style="rhombus;whiteSpace=wrap;html=1;rounded=1;" vertex="1" parent="4">
          <mxGeometry x="40" y="470" width="130" height="70" as="geometry" />
        </mxCell>
        <mxCell id="EQRVj0fhtWuDoBMEf7y_-97" value="" style="edgeStyle=orthogonalEdgeStyle;rounded=0;orthogonalLoop=1;jettySize=auto;html=1;" edge="1" parent="4" source="EQRVj0fhtWuDoBMEf7y_-94" target="EQRVj0fhtWuDoBMEf7y_-96">
          <mxGeometry relative="1" as="geometry" />
        </mxCell>
        <mxCell id="EQRVj0fhtWuDoBMEf7y_-94" value="Reject Application" style="whiteSpace=wrap;html=1;rounded=1;" vertex="1" parent="4">
          <mxGeometry x="210" y="475" width="120" height="60" as="geometry" />
        </mxCell>
        <mxCell id="EQRVj0fhtWuDoBMEf7y_-99" value="" style="edgeStyle=orthogonalEdgeStyle;rounded=0;orthogonalLoop=1;jettySize=auto;html=1;" edge="1" parent="4" source="EQRVj0fhtWuDoBMEf7y_-96" target="EQRVj0fhtWuDoBMEf7y_-98">
          <mxGeometry relative="1" as="geometry" />
        </mxCell>
        <mxCell id="EQRVj0fhtWuDoBMEf7y_-96" value="Notify jobseeker of rejection" style="whiteSpace=wrap;html=1;rounded=1;" vertex="1" parent="4">
          <mxGeometry x="210" y="363" width="120" height="60" as="geometry" />
        </mxCell>
        <mxCell id="EQRVj0fhtWuDoBMEf7y_-98" value="" style="ellipse;whiteSpace=wrap;html=1;rounded=1;" vertex="1" parent="4">
          <mxGeometry x="255" y="180" width="30" height="30" as="geometry" />
        </mxCell>
        <mxCell id="EQRVj0fhtWuDoBMEf7y_-103" value="" style="edgeStyle=orthogonalEdgeStyle;rounded=0;orthogonalLoop=1;jettySize=auto;html=1;" edge="1" parent="4" source="EQRVj0fhtWuDoBMEf7y_-100" target="EQRVj0fhtWuDoBMEf7y_-102">
          <mxGeometry relative="1" as="geometry" />
        </mxCell>
        <mxCell id="EQRVj0fhtWuDoBMEf7y_-100" value="Accept application" style="whiteSpace=wrap;html=1;rounded=1;" vertex="1" parent="4">
          <mxGeometry x="45" y="363" width="120" height="60" as="geometry" />
        </mxCell>
        <mxCell id="EQRVj0fhtWuDoBMEf7y_-104" style="edgeStyle=orthogonalEdgeStyle;rounded=0;orthogonalLoop=1;jettySize=auto;html=1;entryX=0;entryY=0.5;entryDx=0;entryDy=0;" edge="1" parent="4" source="EQRVj0fhtWuDoBMEf7y_-102" target="EQRVj0fhtWuDoBMEf7y_-98">
          <mxGeometry relative="1" as="geometry" />
        </mxCell>
        <mxCell id="EQRVj0fhtWuDoBMEf7y_-102" value="Schedule Interview" style="whiteSpace=wrap;html=1;rounded=1;" vertex="1" parent="4">
          <mxGeometry x="45" y="270" width="120" height="60" as="geometry" />
        </mxCell>
        <mxCell id="EQRVj0fhtWuDoBMEf7y_-50" style="edgeStyle=orthogonalEdgeStyle;rounded=0;orthogonalLoop=1;jettySize=auto;html=1;entryX=0;entryY=0.5;entryDx=0;entryDy=0;" edge="1" parent="1" source="EQRVj0fhtWuDoBMEf7y_-44" target="EQRVj0fhtWuDoBMEf7y_-49">
          <mxGeometry relative="1" as="geometry" />
        </mxCell>
        <mxCell id="EQRVj0fhtWuDoBMEf7y_-89" value="" style="edgeStyle=orthogonalEdgeStyle;rounded=0;orthogonalLoop=1;jettySize=auto;html=1;exitX=0.5;exitY=1;exitDx=0;exitDy=0;entryX=0;entryY=0.5;entryDx=0;entryDy=0;" edge="1" parent="1" source="EQRVj0fhtWuDoBMEf7y_-81" target="EQRVj0fhtWuDoBMEf7y_-88">
          <mxGeometry relative="1" as="geometry" />
        </mxCell>
      </root>
    </mxGraphModel>
  </diagram>
</mxfile>
